<svg id="Layer_1" xmlns="http://www.w3.org/2000/svg" viewBox="-1172 691.8 214.7 58.2"><style>.st0{fill:#ababab}.st1{fill:#39a8df}</style><g id="XMLID_25_"><path id="XMLID_26_" class="st0" d="M-1172 693.4c0-.7.6-1.2 1.2-1.2h9.9c10.6-.1 17.9 7.2 17.9 16.6v.1c0 9.5-7.3 16.8-17.9 16.8h-9.9c-.7 0-1.2-.6-1.2-1.2v-31.1zm11.2 30c9.4 0 15.3-6.4 15.3-14.4v-.1c0-8-5.9-14.5-15.3-14.5h-8.7v29h8.7z"/><path id="XMLID_29_" class="st0" d="M-1130.5 724.5v-31.1c0-.7.6-1.2 1.2-1.2h21.7c.6 0 1.2.5 1.2 1.2s-.5 1.2-1.2 1.2h-20.4v13.2h18.3c.6 0 1.2.5 1.2 1.2s-.5 1.2-1.2 1.2h-18.3v13.5h20.7c.6 0 1.2.5 1.2 1.2s-.5 1.2-1.2 1.2h-21.9c-.7-.4-1.3-.9-1.3-1.6z"/><path id="XMLID_31_" class="st0" d="M-1094.3 693.2c0-.7.6-1.2 1.2-1.2h.4c.5 0 .9.3 1.2.7l22.7 28.8v-28.4c0-.7.5-1.2 1.2-1.2s1.2.5 1.2 1.2v31.7c0 .6-.4 1.1-1 1.1h-.2c-.5 0-.9-.3-1.2-.8l-23.1-29.3v28.9c0 .7-.5 1.2-1.2 1.2s-1.2-.5-1.2-1.2v-31.5z"/><path id="XMLID_33_" class="st0" d="M-1043.1 694.4h-10.8c-.6 0-1.2-.5-1.2-1.2s.5-1.2 1.2-1.2h24c.6 0 1.2.5 1.2 1.2s-.5 1.2-1.2 1.2h-10.8v30.2c0 .7-.6 1.2-1.2 1.2-.7 0-1.2-.6-1.2-1.2v-30.2z"/><path id="XMLID_35_" class="st0" d="M-1023.7 724.1l14.4-31.1c.3-.7.8-1.2 1.7-1.2h.1c.9 0 1.3.5 1.7 1.2l14.3 31c.1.3.2.5.2.8 0 .6-.5 1.2-1.2 1.2-.6 0-1-.4-1.2-1l-3.9-8.6h-19.8l-3.9 8.7c-.2.6-.6.9-1.2.9s-1.2-.5-1.2-1.1c-.2-.2-.2-.5 0-.8zm24.8-10l-8.8-19.4-8.9 19.4h17.7z"/><path id="XMLID_38_" class="st0" d="M-979.7 693.2c0-.7.6-1.2 1.2-1.2s1.2.6 1.2 1.2v30.2h18.8c.6 0 1.2.5 1.2 1.2s-.5 1.2-1.2 1.2h-20c-.7 0-1.2-.6-1.2-1.2v-31.4z"/></g><g id="XMLID_1_"><path id="XMLID_4_" class="st1" d="M-1110.2 748.7c-.1-.1-.3-.3-.3-.5 0-.3.3-.6.6-.6.1 0 .3 0 .3.1 1 .6 1.9 1 3 1s1.9-.6 1.9-1.5-1.1-1.3-2.3-1.6c-1.5-.4-3.1-.9-3.1-2.6 0-1.6 1.3-2.7 3.2-2.7 1 0 2.1.3 3 .8.2.1.3.3.3.6s-.3.6-.6.6c-.1 0-.2 0-.3-.1-.8-.5-1.6-.7-2.4-.7-1.1 0-1.8.6-1.8 1.4 0 .9 1.2 1.2 2.4 1.6 1.4.4 3 1 3 2.7 0 1.8-1.5 2.8-3.3 2.8-1.3-.1-2.6-.5-3.6-1.3z"/><path id="XMLID_6_" class="st1" d="M-1099.8 745.1c0-2.7 2.1-4.9 4.9-4.9 2.8 0 4.8 2.2 4.8 4.8 0 2.6-2.1 4.9-4.9 4.9-2.8.1-4.8-2.1-4.8-4.8zm8.2 0c0-2-1.5-3.7-3.5-3.7s-3.4 1.6-3.4 3.6 1.5 3.6 3.4 3.6c2.1.1 3.5-1.5 3.5-3.5z"/><path id="XMLID_9_" class="st1" d="M-1086 737.2c0-.4.3-.7.7-.7.4 0 .7.3.7.7v11.9c0 .4-.3.7-.7.7-.4 0-.7-.3-.7-.7v-11.9z"/><path id="XMLID_11_" class="st1" d="M-1071.9 749.1c0 .4-.3.7-.7.7s-.7-.3-.7-.7v-1c-.6 1-1.6 1.8-3.2 1.8-2.3 0-3.6-1.5-3.6-3.7V741c0-.4.3-.7.7-.7s.7.3.7.7v4.8c0 1.7.9 2.8 2.6 2.8 1.6 0 2.8-1.2 2.8-2.9V741c0-.4.3-.7.7-.7s.7.3.7.7v8.1z"/><path id="XMLID_13_" class="st1" d="M-1066.9 747.3v-5.6h-.8c-.3 0-.6-.3-.6-.6s.3-.6.6-.6h.8v-2.2c0-.4.3-.7.7-.7.4 0 .7.3.7.7v2.2h2.4c.3 0 .6.3.6.6s-.3.6-.6.6h-2.4v5.4c0 1.1.6 1.5 1.6 1.5.5 0 .7-.1.8-.1.3 0 .6.3.6.6s-.2.5-.4.5c-.4.2-.8.3-1.4.3-1.4 0-2.6-.7-2.6-2.6z"/><path id="XMLID_15_" class="st1" d="M-1058.6 737.5c0-.5.4-.7.8-.7.5 0 .8.3.8.7v.2c0 .4-.4.7-.8.7-.5 0-.8-.3-.8-.7v-.2zm.2 3.5c0-.4.3-.7.7-.7.4 0 .7.3.7.7v8.1c0 .4-.3.7-.7.7-.4 0-.7-.3-.7-.7V741z"/><path id="XMLID_18_" class="st1" d="M-1052.9 745.1c0-2.7 2.1-4.9 4.9-4.9s4.8 2.2 4.8 4.8c0 2.6-2.1 4.9-4.9 4.9-2.8.1-4.8-2.1-4.8-4.8zm8.3 0c0-2-1.5-3.7-3.5-3.7s-3.4 1.6-3.4 3.6 1.5 3.6 3.4 3.6c2.1.1 3.5-1.5 3.5-3.5z"/><path id="XMLID_21_" class="st1" d="M-1039.2 741c0-.4.3-.7.7-.7s.7.3.7.7v1c.6-1 1.6-1.8 3.2-1.8 2.3 0 3.6 1.5 3.6 3.7v5.2c0 .4-.3.7-.7.7-.4 0-.7-.3-.7-.7v-4.8c0-1.7-.9-2.8-2.6-2.8-1.6 0-2.8 1.2-2.8 2.9v4.7c0 .4-.3.7-.7.7s-.7-.3-.7-.7V741z"/><path id="XMLID_23_" class="st1" d="M-1027.1 748.7c-.1-.1-.3-.3-.3-.5 0-.3.3-.6.6-.6.1 0 .3 0 .3.1 1 .6 1.9 1 3 1s1.9-.6 1.9-1.5-1.1-1.3-2.3-1.6c-1.5-.4-3.1-.9-3.1-2.6 0-1.6 1.3-2.7 3.2-2.7 1 0 2.1.3 3 .8.2.1.3.3.3.6s-.3.6-.6.6c-.1 0-.2 0-.3-.1-.8-.5-1.6-.7-2.4-.7-1.1 0-1.8.6-1.8 1.4 0 .9 1.2 1.2 2.4 1.6 1.4.4 3 1 3 2.7 0 1.8-1.5 2.8-3.3 2.8-1.3-.1-2.6-.5-3.6-1.3z"/></g></svg>