<svg id="Layer_1" xmlns="http://www.w3.org/2000/svg" viewBox="-598 300 443 532" enable-background="new -598 300 443 532"><style>.st0{fill:#9b9b9b}.st1{filter:url(#Adobe_OpacityMaskFilter)}.st2{fill:none}.st3{mask:url(#b);fill:#9b9b9b}</style><title>Page 1</title><path class="st0" d="M-376.5 462.3c29.5 0 57.7 4.8 81.7 13.9 3-4.9 6.3-10.6 9.4-17.1 13.8-28.9 8.5-42-3.1-70.8l-2.2-5.5c-9.3-23.3-18.9-47.4-32.4-47.4-3.3 0-6.8 1.4-10.7 4.1-19.1 13.6-35.2 14.6-39.7 14.6h-3c-.1 0-18.5 1.3-41-14.6-3.9-2.7-7.5-4.1-10.8-4.1-13.6 0-23.1 24-32.3 47.1l-2.1 5.3c-11.6 29-16.9 42.2-3.1 71.1 3 6.3 6.2 11.9 9.1 16.7 23.6-8.7 51.3-13.3 80.2-13.3m82.6 18.8c-.3 0-.5 0-.8-.2-23.8-9.3-52.1-14.2-81.8-14.2-29 0-56.8 4.7-80.4 13.7-1 .4-2.1 0-2.7-.9-3.2-5.2-6.8-11.5-10.2-18.7-14.6-30.7-8.4-46.3 3-74.7l2.1-5.3c9.8-24.5 19.9-49.9 36.4-49.9 4.2 0 8.7 1.7 13.3 4.9 18.1 12.8 33 13.8 37.2 13.8h4.3c4.2 0 19.1-1 37.2-13.8 4.6-3.3 9-4.9 13.2-4.9 16.5 0 26.2 24.4 36.5 50.2l2.2 5.5c11.7 29.1 17.6 43.7 3 74.3-3.5 7.3-7.3 13.7-10.5 19-.5.8-1.3 1.2-2 1.2M-482.5 662.8c-.7 0-1.4-.4-1.9-1-.7-1-.4-2.4.7-3 .4-.3 41.7-26.3 108.4-26.3 62.4 0 105.5 24.8 106 25.1 1 .6 1.4 2 .8 3-.6 1-2 1.4-3 .8-.4-.2-42.6-24.5-103.8-24.5-65.2 0-105.6 25.3-106 25.6-.4.2-.8.3-1.2.3"/><g transform="translate(64 310.92)"><defs><filter id="Adobe_OpacityMaskFilter" filterUnits="userSpaceOnUse" x="-484.1" y="331.2" width="90.8" height="28.8"><feColorMatrix values="1 0 0 0 0 0 1 0 0 0 0 0 1 0 0 0 0 0 1 0"/></filter></defs><mask maskUnits="userSpaceOnUse" x="-484.1" y="331.2" width="90.8" height="28.8" id="b"><g class="st1"><path id="a" class="st2" d="M-484.1 360h90.8v-28.8h-90.8V360z"/></g></mask><path class="st3" d="M-438.7 335.6c-25 0-41 5.9-41 10s16 10 41 10 41-5.9 41-10-16-10-41-10m0 24.4c-22.5 0-45.4-4.9-45.4-14.4s22.8-14.4 45.4-14.4c22.5 0 45.4 5 45.4 14.4 0 9.5-22.9 14.4-45.4 14.4"/></g><path class="st0" d="M-317.1 495c-.5 0-1-.2-1.4-.5-.9-.8-1-2.2-.2-3.1 12.7-14.6 24.4-14.6 24.9-14.6 1.2 0 2.2 1 2.2 2.2 0 1.2-1.1 2.1-2.2 2.2-.1 0-10.2.1-21.5 13.1-.5.4-1.2.7-1.8.7M-339.9 544.8c-.2 0-.4 0-.5-.1-1.2-.3-1.9-1.5-1.6-2.7 2.5-9.8 4.3-15.7 7-22.3.5-1.1 1.7-1.7 2.9-1.2 1.1.5 1.7 1.7 1.2 2.9-2.6 6.4-4.4 12.1-6.8 21.7-.4 1.1-1.3 1.7-2.2 1.7M-378.9 609.1c-7.9 0-14.5-3.4-20.1-10.5-.8-1-.6-2.3.4-3.1.9-.8 2.3-.6 3.1.4 4.8 6 10.1 8.9 16.6 8.9 13 0 21.2-9.8 29.2-34.9.4-1.2 1.6-1.8 2.8-1.4 1.2.4 1.8 1.6 1.4 2.8-6.4 19.5-14.7 37.8-33.4 37.8M-407.1 580.8c-.9 0-1.7-.5-2.1-1.4-1.8-4.8-3-8.4-4.7-14.7-.3-1.2.4-2.4 1.6-2.7 1.2-.3 2.4.4 2.7 1.6 1.7 6.2 2.8 9.6 4.6 14.3.4 1.1-.1 2.4-1.3 2.8-.3.1-.5.1-.8.1M-416.8 544.8c-1 0-1.9-.7-2.2-1.8-1.2-5.9-2.6-11.5-4.3-16.7-.4-1.2.3-2.4 1.4-2.8 1.2-.4 2.4.3 2.8 1.4 1.7 5.3 3.2 11.1 4.4 17.1.2 1.2-.5 2.4-1.7 2.6-.1.2-.2.2-.4.2M-429.8 507.1c-.8 0-1.5-.4-1.9-1.1-12.3-22.4-26.3-25.4-26.4-25.4-1.2-.2-2-1.4-1.7-2.6s1.4-2 2.6-1.7c.7.1 16.2 3.4 29.4 27.7.6 1.1.2 2.4-.9 3-.4.1-.7.1-1.1.1"/><path class="st0" d="M-430.8 509.1c-.8 0-1.5-.4-1.9-1.1-.6-1.1-.2-2.4.9-3l73-40.5c1.1-.6 2.4-.2 3 .9.6 1.1.2 2.4-.9 3l-73 40.5c-.3.1-.7.2-1.1.2"/><path class="st0" d="M-425.9 527.6c-4.3 0-8.4-2.2-10.6-6.2-3.2-5.8-1.1-13.2 4.7-16.5 1.1-.6 2.4-.2 3 .9.6 1.1.2 2.4-.9 3-3.7 2.1-5.1 6.8-3 10.5 2.1 3.7 6.8 5.1 10.5 3l95.6-53.1c1.1-.6 2.4-.2 3 .9.6 1.1.2 2.4-.9 3l-95.6 53.1c-1.8.9-3.8 1.4-5.8 1.4M-321.5 494.1c-1.3 0-2.6.3-3.7 1l-96.3 53.5c-1.8 1-3.1 2.6-3.7 4.6s-.3 4.1.7 5.9c1.4 2.4 3.9 4 6.8 4 1.3 0 2.6-.3 3.7-1l96.3-53.5c3.7-2.1 5.1-6.8 3-10.5-1.4-2.4-4-4-6.8-4m-96.3 73.3c-4.4 0-8.5-2.4-10.6-6.2-1.6-2.8-1.9-6.1-1-9.2.9-3.1 2.9-5.7 5.8-7.3l96.3-53.5c1.8-1 3.8-1.5 5.8-1.5 4.4 0 8.5 2.4 10.6 6.2 3.2 5.8 1.1 13.2-4.7 16.5l-96.3 53.5c-1.8 1-3.8 1.5-5.9 1.5M-341.1 546.9c-1.3 0-2.6.3-3.7 1l-62.1 34.5c-3.7 2.1-5.1 6.8-3 10.5 1.4 2.4 3.9 4 6.8 4 1.3 0 2.6-.3 3.7-1l62.1-34.5c1.8-1 3.1-2.6 3.7-4.6.6-2 .3-4.1-.7-5.9-1.4-2.5-4-4-6.8-4m-62 54.2c-4.4 0-8.5-2.4-10.6-6.2-3.2-5.8-1.1-13.2 4.7-16.5l62.1-34.5c1.8-1 3.8-1.5 5.8-1.5 4.4 0 8.5 2.4 10.6 6.2 1.6 2.8 1.9 6.1 1 9.2-.9 3.1-2.9 5.7-5.7 7.3l-62.1 34.5c-1.8 1-3.8 1.5-5.8 1.5"/></svg>