<svg id="Layer_1" xmlns="http://www.w3.org/2000/svg" viewBox="0 0 165 165"><style>.st0{fill:#38a8de}.st1{fill:#fff}</style><circle id="XMLID_1_" class="st0" cx="82.5" cy="81.9" r="81.4"/><g id="XMLID_4_"><path id="XMLID_5_" class="st1" d="M37.7 55.6c-.5 0-.9-.4-.9-.9v-4.6h-6.6v4.6c0 .5-.4.9-.9.9s-.9-.4-.9-.9V44.2c0-.5.4-.9.9-.9s.9.4.9.9v4.3h6.6v-4.3c0-.5.4-.9.9-.9s.9.4.9.9v10.5c0 .5-.4.9-.9.9z"/><path id="XMLID_7_" class="st1" d="M45.1 55.7c-2.7 0-4.4-2.1-4.4-4.6 0-2.5 1.7-4.6 4.4-4.6s4.4 2.1 4.4 4.6c0 2.5-1.7 4.6-4.4 4.6zm0-7.7c-1.7 0-2.7 1.5-2.7 3.1 0 1.7 1 3.2 2.7 3.2 1.7 0 2.7-1.5 2.7-3.2 0-1.6-1-3.1-2.7-3.1z"/><path id="XMLID_10_" class="st1" d="M58.8 47.7l-2.9 7.1c-.2.5-.6.8-1.2.8-.5 0-.9-.3-1.1-.8l-2.9-7.1c0-.1-.1-.2-.1-.3 0-.4.3-.8.8-.8.3 0 .6.2.7.5l2.6 6.4 2.6-6.4c.1-.3.4-.5.7-.5.5 0 .8.4.8.8v.3z"/><path id="XMLID_12_" class="st1" d="M67.7 51.6h-6c.1 1.5 1.2 2.8 3 2.8.7 0 1.5-.3 2.2-.7.1-.1.2-.1.4-.1.3 0 .6.3.6.6 0 1-2.2 1.5-3.3 1.5-2.6 0-4.5-1.8-4.5-4.6 0-2.5 1.8-4.6 4.3-4.6 2.1 0 3.5 1.3 4.1 3.3.1.3.2.7.2 1-.2.5-.6.8-1 .8zm-3.4-3.7c-1.7 0-2.6 1.4-2.6 2.6H67c-.1-1.2-.9-2.6-2.7-2.6z"/><path id="XMLID_15_" class="st1" d="M74.3 48.2c-.8.1-1.6.4-2.2 1.2v5.4c0 .4-.4.8-.8.8s-.8-.4-.8-.8v-7.3c0-.4.4-.8.8-.8s.8.4.8.8v.7c.5-.7 1.3-1.5 2.3-1.5.4 0 .7.3.7.7 0 .4-.3.8-.8.8z"/><path id="XMLID_17_" class="st1" d="M83.1 44.6c0 .6-.5 1-1 1-.6 0-1-.5-1-1 0-.6.5-1 1-1 .5-.1 1 .4 1 1zm-1 11c-.4 0-.8-.4-.8-.8v-7.3c0-.4.4-.8.8-.8s.8.4.8.8v7.3c0 .4-.4.8-.8.8z"/><path id="XMLID_20_" class="st1" d="M96.8 55.6c-.4 0-.8-.4-.8-.8v-5.1c0-1-.5-1.7-1.5-1.7-.9 0-1.8.6-2.2 1.3v5.5c0 .4-.4.8-.8.8s-.8-.4-.8-.8v-5.1c0-1-.4-1.7-1.5-1.7-.8 0-1.7.6-2.1 1.3v5.5c0 .4-.4.8-.8.8s-.8-.4-.8-.8v-7.3c0-.4.4-.8.8-.8s.8.4.8.8v.5c.4-.5 1.5-1.4 2.8-1.4 1.3 0 2.1.7 2.4 1.6.5-.8 1.7-1.6 2.9-1.6 1.6 0 2.5.9 2.5 2.6v5.6c-.1.4-.4.8-.9.8z"/><path id="XMLID_22_" class="st1" d="M106.4 55.6c-.4 0-.8-.3-.8-.8v-.3c-.7.8-1.7 1.2-2.9 1.2-1.4 0-3-1-3-2.9 0-2 1.6-2.8 3-2.8 1.2 0 2.2.4 2.9 1.2v-1.5c0-1.1-.9-1.7-2.1-1.7-.8 0-1.5.3-2.2.8-.1.1-.3.1-.4.1-.3 0-.7-.3-.7-.6 0-.1.1-.3.2-.4.8-.8 2.1-1.2 3.3-1.2 1.9 0 3.5.8 3.5 3v5.2c0 .3-.4.7-.8.7zm-.8-3.5c-.5-.7-1.4-1-2.3-1-1.2 0-2 .7-2 1.8 0 1 .8 1.7 2 1.7.9 0 1.8-.3 2.3-1v-1.5z"/><path id="XMLID_25_" class="st1" d="M113.3 59c-1.2 0-2.4-.3-3.3-1.1-.1-.1-.2-.3-.2-.5 0-.4.3-.7.7-.7.2 0 .3 0 .4.1.7.6 1.4.8 2.4.8 1.4 0 2.7-.6 2.7-2.5V54c-.6.9-1.7 1.5-2.9 1.5-2.2 0-3.9-1.7-3.9-4.5s1.6-4.5 3.9-4.5c1.2 0 2.2.5 2.9 1.5v-.6c0-.4.4-.8.8-.8s.8.4.8.8v7.7c0 3-2.2 3.9-4.3 3.9zm2.7-9.7c-.5-.7-1.4-1.3-2.4-1.3-1.6 0-2.6 1.3-2.6 3.1s1 3.1 2.6 3.1c1 0 2-.6 2.4-1.3v-3.6z"/><path id="XMLID_28_" class="st1" d="M127.4 51.6h-6.1c.1 1.5 1.2 2.8 3 2.8.7 0 1.5-.3 2.2-.7.1-.1.2-.1.4-.1.3 0 .6.3.6.6 0 1-2.2 1.5-3.3 1.5-2.6 0-4.5-1.8-4.5-4.6 0-2.5 1.8-4.6 4.3-4.6 2.1 0 3.5 1.3 4.1 3.3.1.3.2.7.2 1-.1.5-.5.8-.9.8zm-3.4-3.7c-1.7 0-2.6 1.4-2.6 2.6h5.3c-.1-1.2-.9-2.6-2.7-2.6z"/><path id="XMLID_31_" class="st1" d="M133.1 55.7c-1.2 0-2.5-.3-3.3-1.1-.1-.1-.2-.3-.2-.4 0-.4.3-.7.7-.7.2 0 .3 0 .4.1.6.5 1.5.8 2.4.8 1.2 0 1.9-.6 1.9-1.4 0-1.9-5.3-.7-5.3-3.9 0-1.4 1.2-2.6 3.3-2.6 1.2 0 2.3.4 3 1 .1.1.2.3.2.4 0 .4-.3.6-.6.6-.1 0-.3 0-.4-.1-.6-.4-1.3-.7-2.2-.7-1.1 0-1.8.5-1.8 1.2 0 1.7 5.3.5 5.3 4 .1 1.6-1.1 2.8-3.4 2.8z"/><path id="XMLID_33_" class="st1" d="M57.4 77.3c-1.4 0-2.1-.8-2.1-2.1v-5.4h-.8c-.4 0-.7-.3-.7-.7 0-.4.3-.7.7-.7h.8v-1.7c0-.4.4-.8.8-.8s.8.4.8.8v1.7h1.2c.4 0 .7.3.7.7 0 .4-.3.7-.7.7h-1.2v5c0 .7.3 1.1.8 1.1.2 0 .4-.1.6-.1.4 0 .7.3.7.7 0 .5-.7.8-1.6.8z"/><path id="XMLID_35_" class="st1" d="M64.3 77.3c-2.7 0-4.4-2.1-4.4-4.6 0-2.5 1.7-4.6 4.4-4.6s4.4 2.1 4.4 4.6c0 2.5-1.6 4.6-4.4 4.6zm0-7.7c-1.7 0-2.7 1.5-2.7 3.1 0 1.7 1 3.2 2.7 3.2 1.7 0 2.7-1.5 2.7-3.2.1-1.6-.9-3.1-2.7-3.1z"/><path id="XMLID_38_" class="st1" d="M82.7 69.3l-2.9 7.1c-.2.4-.6.8-1.2.8-.5 0-.9-.3-1.1-.8l-2.9-7.1c0-.1-.1-.2-.1-.3 0-.4.3-.8.8-.8.3 0 .6.2.7.5l2.6 6.4 2.6-6.4c.1-.3.4-.5.7-.5.5 0 .8.4.8.8v.3z"/><path id="XMLID_40_" class="st1" d="M86.2 66.2c0 .6-.5 1-1 1-.6 0-1-.5-1-1 0-.6.5-1 1-1 .5-.1 1 .4 1 1zm-1 11c-.4 0-.8-.4-.8-.8V69c0-.4.4-.8.8-.8s.8.4.8.8v7.3c0 .5-.4.9-.8.9z"/><path id="XMLID_43_" class="st1" d="M95.8 73.2h-6.1c.1 1.5 1.2 2.8 3 2.8.7 0 1.5-.3 2.2-.7.1-.1.2-.1.4-.1.3 0 .6.3.6.6 0 1-2.2 1.5-3.3 1.5-2.6 0-4.5-1.8-4.5-4.6 0-2.5 1.8-4.6 4.3-4.6 2.1 0 3.5 1.3 4.1 3.3.1.3.2.7.2 1-.1.5-.5.8-.9.8zm-3.4-3.7c-1.7 0-2.6 1.4-2.6 2.6H95c0-1.2-.8-2.6-2.6-2.6z"/><path id="XMLID_46_" class="st1" d="M110.3 69.3l-2.3 7.2c-.1.4-.5.7-1 .7s-.9-.3-1-.7l-1.9-6.1-2 6.1c-.1.4-.5.7-1 .7-.4 0-.8-.3-1-.7l-2.3-7.2v-.2c0-.4.3-.8.8-.8.3 0 .7.2.8.5l1.9 6.2 2-6.1c.1-.4.5-.6.9-.6s.7.3.8.6l2 6.1 1.9-6.2c.1-.3.4-.5.8-.5.5 0 .8.4.8.8-.2 0-.2.1-.2.2z"/><path id="XMLID_48_" class="st1" d="M44.5 98.9c-1.2 0-2.2-.6-2.9-1.5v.6c0 .4-.4.8-.8.8s-.8-.4-.8-.8V87.3c0-.4.4-.8.8-.8s.8.4.8.8v3.9c.7-.9 1.7-1.5 2.9-1.5 2.3 0 3.9 1.8 3.9 4.6 0 2.9-1.6 4.6-3.9 4.6zm-.4-7.7c-1 0-2 .6-2.4 1.3v3.7c.4.7 1.4 1.3 2.4 1.3 1.7 0 2.6-1.3 2.6-3.1s-1-3.2-2.6-3.2z"/><path id="XMLID_51_" class="st1" d="M57.6 94.8h-6c.1 1.5 1.2 2.8 3 2.8.7 0 1.5-.3 2.2-.7.1-.1.2-.1.4-.1.3 0 .6.3.6.6 0 1-2.2 1.5-3.3 1.5-2.6 0-4.5-1.8-4.5-4.6 0-2.5 1.8-4.6 4.3-4.6 2.1 0 3.5 1.3 4.1 3.3.1.3.2.7.2 1-.1.5-.5.8-1 .8zm-3.4-3.7c-1.7 0-2.6 1.4-2.6 2.6h5.3c0-1.2-.8-2.6-2.7-2.6z"/><path id="XMLID_54_" class="st1" d="M64.8 88c-.3 0-.6-.2-.9-.2-.8 0-1.3.6-1.3 1.6v.6h1.2c.4 0 .7.3.7.7 0 .4-.3.7-.7.7h-1.2V98c0 .4-.4.8-.8.8s-.8-.4-.8-.8v-6.6h-.9c-.4 0-.7-.3-.7-.7 0-.4.3-.7.7-.7h.9v-.6c0-1.8 1-2.9 2.6-2.9.8 0 1.8.3 1.8.9 0 .4-.3.6-.6.6z"/><path id="XMLID_56_" class="st1" d="M69.7 98.9c-2.7 0-4.4-2.1-4.4-4.6 0-2.5 1.7-4.6 4.4-4.6s4.4 2.1 4.4 4.6c0 2.5-1.7 4.6-4.4 4.6zm0-7.7c-1.7 0-2.7 1.5-2.7 3.1 0 1.7 1 3.2 2.7 3.2 1.7 0 2.7-1.5 2.7-3.2 0-1.6-1-3.1-2.7-3.1z"/><path id="XMLID_59_" class="st1" d="M79.9 91.4c-.8.1-1.6.4-2.2 1.2V98c0 .4-.4.8-.8.8s-.8-.4-.8-.8v-7.3c0-.4.4-.8.8-.8s.8.4.8.8v.7c.5-.7 1.3-1.5 2.3-1.5.4 0 .7.3.7.7 0 .4-.3.8-.8.8z"/><path id="XMLID_61_" class="st1" d="M89.4 94.8h-6.1c.1 1.5 1.2 2.8 3 2.8.7 0 1.5-.3 2.2-.7.1-.1.2-.1.4-.1.3 0 .6.3.6.6 0 1-2.2 1.5-3.3 1.5-2.6 0-4.5-1.8-4.5-4.6 0-2.5 1.8-4.6 4.3-4.6 2.1 0 3.5 1.3 4.1 3.3.1.3.2.7.2 1 0 .5-.4.8-.9.8zM86 91.1c-1.7 0-2.6 1.4-2.6 2.6h5.3c0-1.2-.8-2.6-2.7-2.6z"/><path id="XMLID_64_" class="st1" d="M103.1 98.8c-.4 0-.8-.3-.8-.8v-.3c-.7.8-1.7 1.2-2.9 1.2-1.4 0-3-1-3-2.9 0-2 1.6-2.8 3-2.8 1.2 0 2.2.4 2.9 1.2v-1.5c0-1.1-.9-1.7-2.1-1.7-.8 0-1.5.3-2.2.8h-.4c-.3 0-.7-.3-.7-.6 0-.1.1-.3.2-.4.8-.8 2.1-1.2 3.3-1.2 1.9 0 3.5.8 3.5 3V98c0 .4-.3.8-.8.8zm-.8-3.5c-.5-.7-1.3-1-2.2-1-1.2 0-2 .7-2 1.8 0 1 .8 1.7 2 1.7.9 0 1.8-.3 2.2-1v-1.5z"/><path id="XMLID_67_" class="st1" d="M113.2 98.8c-.4 0-.8-.4-.8-.8v-4.9c0-1.4-.7-1.9-1.9-1.9-1 0-1.9.6-2.4 1.3V98c0 .4-.4.8-.8.8s-.8-.4-.8-.8v-7.3c0-.4.4-.8.8-.8s.8.4.8.8v.6c.6-.7 1.7-1.4 3.1-1.4 1.8 0 2.8 1 2.8 2.8V98c0 .4-.4.8-.8.8z"/><path id="XMLID_69_" class="st1" d="M123.6 98.8c-.4 0-.8-.4-.8-.8v-.6c-.7.9-1.7 1.5-2.9 1.5-2.3 0-3.9-1.7-3.9-4.6 0-2.8 1.6-4.6 3.9-4.6 1.1 0 2.2.5 2.9 1.5v-3.9c0-.4.4-.8.8-.8s.8.4.8.8V98c0 .4-.4.8-.8.8zm-.8-6.3c-.5-.7-1.4-1.3-2.4-1.3-1.6 0-2.6 1.3-2.6 3.2s1 3.1 2.6 3.1c1 0 2-.6 2.4-1.3v-3.7z"/><path id="XMLID_72_" class="st1" d="M69.3 120.4c-.4 0-.8-.3-.8-.8v-.3c-.7.8-1.7 1.2-2.9 1.2-1.4 0-3-1-3-2.9 0-2 1.6-2.8 3-2.8 1.2 0 2.2.4 2.9 1.2v-1.5c0-1.1-.9-1.7-2.1-1.7-.8 0-1.5.3-2.2.8-.1.1-.3.1-.4.1-.3 0-.7-.3-.7-.6 0-.1.1-.3.2-.4.8-.8 2.1-1.2 3.3-1.2 1.9 0 3.5.8 3.5 3v5.2c0 .3-.4.7-.8.7zm-.8-3.5c-.5-.7-1.4-1-2.3-1-1.2 0-2 .7-2 1.8 0 1 .8 1.7 2 1.7.9 0 1.8-.3 2.3-1v-1.5z"/><path id="XMLID_75_" class="st1" d="M76.9 109.6c-.3 0-.6-.2-.9-.2-.8 0-1.3.6-1.3 1.6v.6h1.2c.4 0 .7.3.7.7 0 .4-.3.7-.7.7h-1.2v6.6c0 .4-.4.8-.8.8s-.8-.4-.8-.8V113h-.9c-.4 0-.7-.3-.7-.7 0-.4.3-.7.7-.7h.9v-.6c0-1.8 1-2.9 2.6-2.9.8 0 1.8.3 1.8.9 0 .4-.3.6-.6.6z"/><path id="XMLID_77_" class="st1" d="M80.4 120.5c-1.4 0-2.1-.8-2.1-2.1V113h-.8c-.4 0-.7-.3-.7-.7 0-.4.3-.7.7-.7h.8v-1.7c0-.4.4-.8.8-.8s.8.4.8.8v1.7h1.2c.4 0 .7.3.7.7 0 .4-.3.7-.7.7h-1.2v5c0 .7.3 1.1.8 1.1.2 0 .4-.1.6-.1.4 0 .7.3.7.7 0 .5-.7.8-1.6.8z"/><path id="XMLID_79_" class="st1" d="M90.7 116.4h-6c.1 1.5 1.2 2.8 3 2.8.7 0 1.5-.3 2.2-.7.1-.1.2-.1.4-.1.3 0 .6.3.6.6 0 1-2.2 1.5-3.3 1.5-2.6 0-4.5-1.8-4.5-4.6 0-2.5 1.8-4.6 4.3-4.6 2.1 0 3.5 1.3 4.1 3.3.1.3.2.7.2 1-.2.5-.6.8-1 .8zm-3.4-3.7c-1.7 0-2.6 1.4-2.6 2.6H90c-.1-1.2-.9-2.6-2.7-2.6z"/><path id="XMLID_82_" class="st1" d="M97.3 113c-.8.1-1.6.4-2.2 1.2v5.4c0 .4-.4.8-.8.8s-.8-.4-.8-.8v-7.3c0-.4.4-.8.8-.8s.8.4.8.8v.7c.5-.7 1.3-1.5 2.2-1.5.4 0 .7.3.7.7.1.4-.2.8-.7.8z"/><path id="XMLID_84_" class="st1" d="M100.5 120.4c-.6 0-1.1-.5-1.1-1.1 0-.6.5-1.1 1.1-1.1.6 0 1.1.5 1.1 1.1 0 .6-.5 1.1-1.1 1.1zm.7-4.2c0 .4-.3.7-.7.7-.4 0-.7-.3-.7-.7 0-.5-.3-7-.3-7.1 0-.5.4-1 1-1 .5 0 1 .4 1 1-.1.1-.3 6.6-.3 7.1z"/></g></svg>